Coordinates
version=1
nRows=9
nColumns=24
inDegrees=yes

Units are S.I. units (second, meters, Newtons, ...)
Angles are in degrees.

endheader
time	pelvis_tilt	pelvis_list	pelvis_rotation	pelvis_tx	pelvis_ty	pelvis_tz	hip_flexion_r	hip_adduction_r	hip_rotation_r	knee_angle_r	ankle_angle_r	subtalar_angle_r	mtp_angle_r	hip_flexion_l	hip_adduction_l	hip_rotation_l	knee_angle_l	ankle_angle_l	subtalar_angle_l	mtp_angle_l	lumbar_extension	lumbar_bending	lumbar_rotation
      4.29500000	     -9.96532998	     -9.31478160	      6.98815394	     -1.51236777	     -0.02249806	      0.44589834	     22.28792870	     10.58785242	    -10.26121989	    -13.30318474	     -5.90052203	     -3.22906862	      5.38514202	     18.95648446	     -8.72188075	      7.20256738	    -60.99912367	    -27.94386714	      5.60135827	     30.59742693	      5.55284324	      6.90062007	     -1.04141263
      4.30000000	     -9.80534333	     -9.18118477	      6.93422923	     -1.50643078	     -0.02164107	      0.44653832	     21.55013955	     10.64495969	     -9.99343742	    -13.08708682	     -5.56610379	     -3.20988009	      5.34701081	     19.64930790	     -8.46712581	      7.28794920	    -61.87311708	    -27.24346170	      4.10953093	     29.98817888	      5.34555786	      6.71664351	     -0.90204461
      4.30500000	     -9.66309137	     -9.01548026	      6.85077569	     -1.50049679	     -0.02076636	      0.44720809	     20.81919197	     10.67772752	     -9.67566456	    -12.86155626	     -5.26822809	     -3.22915111	      5.27398409	     20.32903800	     -8.19183024	      7.33804968	    -62.63123431	    -26.53834006	      2.79782976	     29.49516152	      5.15904271	      6.50011316	     -0.72287894
      4.31000000	     -9.54562121	     -8.81653514	      6.74905889	     -1.49456630	     -0.01989455	      0.44788168	     20.09850269	     10.67815981	     -9.28562066	    -12.62107348	     -4.98261303	     -3.28855524	      5.17896140	     21.00828388	     -7.88642208	      7.36982844	    -63.27909304	    -25.85789422	      1.66569520	     29.13765910	      5.00321640	      6.25212997	     -0.51268909
      4.31500000	     -9.44916713	     -8.56086434	      6.58840758	     -1.48864756	     -0.01899500	      0.44864067	     19.40261679	     10.63469119	     -8.86945350	    -12.40307232	     -4.74962502	     -3.39073770	      5.03926446	     21.65866995	     -7.55190867	      7.31276503	    -63.80307510	    -25.14615604	      0.66688146	     28.84807080	      4.86190093	      5.94069194	     -0.26918259
      4.32000000	     -9.38586183	     -8.27869470	      6.41669848	     -1.48272284	     -0.01812589	      0.44939063	     18.72726855	     10.55714521	     -8.40330195	    -12.16780333	     -4.50025478	     -3.50525028	      4.90525272	     22.32101947	     -7.19273028	      7.24661864	    -64.22590757	    -24.43015401	     -0.13101325	     28.69056912	      4.76564758	      5.60563628	      0.00116161
      4.32500000	     -9.34688143	     -7.96906306	      6.20849080	     -1.47683399	     -0.01726185	      0.45016688	     18.08564108	     10.44933396	     -7.92484417	    -11.95009471	     -4.28418440	     -3.61635324	      4.76744691	     22.97670691	     -6.82375850	      7.12802287	    -64.54309154	    -23.66627228	     -0.79478572	     28.61474466	      4.69179654	      5.24472343	      0.29160675
      4.33000000	     -9.33457646	     -7.63117304	      5.97920060	     -1.47096196	     -0.01642316	      0.45096210	     17.46874159	     10.30739134	     -7.44495921	    -11.72587961	     -4.05693411	     -3.71907862	      4.64757867	     23.63530356	     -6.43706721	      6.97733231	    -64.76361066	    -22.87715145	     -1.31801318	     28.60365461	      4.65025215	      4.85786767	      0.58490689
      4.33500000	     -9.34572482	     -7.25464299	      5.70229153	     -1.46513307	     -0.01558442	      0.45179928	     16.88400736	     10.12564322	     -6.92624707	    -11.51985018	     -3.84846393	     -3.81278334	      4.52653022	     24.27824624	     -6.03395364	      6.76302989	    -64.87355901	    -22.03882766	     -1.73749658	     28.61667180	      4.62508287	      4.43374506	      0.93507040
